<?xml version="1.0" encoding="UTF-8" standalone="no"?>
<!-- Generated by graphviz version 13.1.2 (20250808.2320)
 -->

<!-- Title: snakemake_dag Pages: 1 -->

<svg
   width="1143.62pt"
   height="580.52271pt"
   viewBox="0 0 1143.62 580.52271"
   version="1.1"
   id="svg87"
   sodipodi:docname="full_rulegraph.svg"
   inkscape:version="1.4.2 (ebf0e940, 2025-05-08)"
   xmlns:inkscape="http://www.inkscape.org/namespaces/inkscape"
   xmlns:sodipodi="http://sodipodi.sourceforge.net/DTD/sodipodi-0.dtd"
   xmlns="http://www.w3.org/2000/svg"
   xmlns:svg="http://www.w3.org/2000/svg">
  <defs
     id="defs87" />
  <sodipodi:namedview
     id="namedview87"
     pagecolor="#ffffff"
     bordercolor="#666666"
     borderopacity="1.0"
     inkscape:showpageshadow="2"
     inkscape:pageopacity="0.0"
     inkscape:pagecheckerboard="0"
     inkscape:deskcolor="#d1d1d1"
     inkscape:document-units="pt"
     showgrid="false"
     inkscape:zoom="0.32533477"
     inkscape:cx="737.70167"
     inkscape:cy="762.29172"
     inkscape:window-width="1440"
     inkscape:window-height="847"
     inkscape:window-x="0"
     inkscape:window-y="25"
     inkscape:window-maximized="1"
     inkscape:current-layer="svg87" />
  <path
     fill="none"
     stroke="#566bd8"
     stroke-width="2"
     d="m 872.88,505 c 0,0 -92.5,0 -92.5,0 -6,0 -12,6 -12,12 0,0 0,12 0,12 0,6 6,12 12,12 0,0 92.5,0 92.5,0 6,0 12,-6 12,-12 0,0 0,-12 0,-12 0,-6 -6,-12 -12,-12"
     id="path3"
     style="stroke:#119e53;stroke-opacity:1" />
  <text
     xml:space="preserve"
     text-anchor="middle"
     x="826.62"
     y="526.88"
     font-family="sans"
     font-size="10px"
     id="text3">summarise_all_metrics</text>
  <path
     fill="none"
     stroke="#5663d8"
     stroke-width="2"
     d="m 954.25,289 c 0,0 -114.25,0 -114.25,0 -6,0 -12,6 -12,12 0,0 0,12 0,12 0,6 6,12 12,12 0,0 114.25,0 114.25,0 6,0 12,-6 12,-12 0,0 0,-12 0,-12 0,-6 -6,-12 -12,-12"
     id="path5"
     style="stroke:#119e53;stroke-opacity:1" />
  <text
     xml:space="preserve"
     text-anchor="middle"
     x="897.12"
     y="310.88"
     font-family="sans"
     font-size="10px"
     id="text5">summarise_sample_metrics</text>
  <text
     xml:space="preserve"
     text-anchor="middle"
     x="950.32642"
     y="377.09558"
     font-family="sans"
     font-size="37.9386px"
     id="text5-9"
     style="fill:#119e53;fill-opacity:1;stroke-width:3.79386">QC</text>
  <text
     xml:space="preserve"
     text-anchor="middle"
     x="908.04572"
     y="36.407574"
     font-family="sans"
     font-size="37.9386px"
     id="text5-9-67"
     style="fill:#2d2d2f;fill-opacity:1;stroke-width:3.79386">Setup</text>
  <text
     xml:space="preserve"
     text-anchor="middle"
     x="545.51025"
     y="579.94843"
     font-family="sans"
     font-size="37.9386px"
     id="text5-9-3"
     style="fill:#aeaa21;fill-opacity:1;stroke-width:3.79386">Centromeres</text>
  <path
     fill="none"
     stroke="#808080"
     stroke-width="2"
     d="M 886.85,325.88 C 865.6,362.86 816.64,448.04 790.8,493"
     id="path6" />
  <polygon
     fill="#808080"
     stroke="#808080"
     stroke-width="2"
     points="786.91,-122.02 792.98,-118.53 784.97,-111.6 "
     id="polygon6"
     transform="translate(1,613)" />
  <path
     fill="none"
     stroke="#ced856"
     stroke-width="2"
     d="m 793.25,217 c 0,0 -54.25,0 -54.25,0 -6,0 -12,6 -12,12 0,0 0,12 0,12 0,6 6,12 12,12 0,0 54.25,0 54.25,0 6,0 12,-6 12,-12 0,0 0,-12 0,-12 0,-6 -6,-12 -12,-12"
     id="path7"
     style="stroke:#119e53;stroke-opacity:1" />
  <text
     xml:space="preserve"
     text-anchor="middle"
     x="766.12"
     y="238.88002"
     font-family="sans"
     font-size="10px"
     id="text7">calculate_N50</text>
  <path
     fill="none"
     stroke="#808080"
     stroke-width="2"
     d="m 799.52,253.85 c 16.17,8.63 35.8,19.13 53.21,28.43"
     id="path8" />
  <polygon
     fill="#808080"
     stroke="#808080"
     stroke-width="2"
     points="849.65,-327.87 852.95,-334.04 860.12,-326.24 "
     id="polygon8"
     transform="translate(1,613)" />
  <path
     fill="none"
     stroke="#56d8c9"
     stroke-width="2"
     d="m 644.62,145 c 0,0 -67,0 -67,0 -6,0 -12,6 -12,12 0,0 0,12 0,12 0,6 6,12 12,12 0,0 67,0 67,0 6,0 12,-6 12,-12 0,0 0,-12 0,-12 0,-6 -6,-12 -12,-12"
     id="path9"
     style="stroke:#2d2d2f;stroke-opacity:1" />
  <text
     xml:space="preserve"
     text-anchor="middle"
     x="611.12"
     y="166.88002"
     font-family="sans"
     font-size="10px"
     id="text9">panSN_renaming</text>
  <path
     fill="none"
     stroke="#808080"
     stroke-width="2"
     d="m 650.64,181.85 c 19.51,8.81 43.29,19.54 64.18,28.98"
     id="path10" />
  <polygon
     fill="#808080"
     stroke="#808080"
     stroke-width="2"
     points="712.1,-399.11 714.98,-405.49 722.66,-398.18 "
     id="polygon10"
     transform="translate(1,613)" />
  <path
     fill="none"
     stroke="#bed856"
     stroke-width="2"
     d="m 958.75,217 c 0,0 -123.25,0 -123.25,0 -6,0 -12,6 -12,12 0,0 0,12 0,12 0,6 6,12 12,12 0,0 123.25,0 123.25,0 6,0 12,-6 12,-12 0,0 0,-12 0,-12 0,-6 -6,-12 -12,-12"
     id="path11"
     style="stroke:#119e53;stroke-opacity:1" />
  <text
     xml:space="preserve"
     text-anchor="middle"
     x="897.12"
     y="238.88002"
     font-family="sans"
     font-size="10px"
     id="text11">calculate_gene_completeness</text>
  <path
     fill="none"
     stroke="#808080"
     stroke-width="2"
     d="m 657.39,175.32 c 41.47,10.15 103.36,25.3 153.87,37.66"
     id="path12" />
  <polygon
     fill="#808080"
     stroke="#808080"
     stroke-width="2"
     points="809.35,-396.64 811.01,-403.44 819.89,-397.66 "
     id="polygon12"
     transform="translate(1,613)" />
  <path
     fill="none"
     stroke="#56d88a"
     stroke-width="2"
     d="m 555.38,361 c 0,0 -50.5,0 -50.5,0 -6,0 -12,6 -12,12 0,0 0,12 0,12 0,6 6,12 12,12 0,0 50.5,0 50.5,0 6,0 12,-6 12,-12 0,0 0,-12 0,-12 0,-6 -6,-12 -12,-12"
     id="path13"
     style="stroke:#aeaa21;stroke-opacity:1" />
  <text
     xml:space="preserve"
     text-anchor="middle"
     x="530.12"
     y="382.88"
     font-family="sans"
     font-size="10px"
     id="text13">minimap2_srf</text>
  <path
     fill="none"
     stroke="#808080"
     stroke-width="2"
     d="m 564.85,175.21 c -21.81,7.86 -45.83,20.83 -58.73,41.79 -24.93,40.51 -6.7,97.36 8.72,131.54"
     id="path14" />
  <polygon
     fill="#808080"
     stroke="#808080"
     stroke-width="2"
     points="510.55,-263.23 516.87,-266.23 518,-255.7 "
     id="polygon14"
     transform="translate(1,613)" />
  <path
     fill="none"
     stroke="#d85656"
     stroke-width="2"
     d="m 571,217 c 0,0 -43.75,0 -43.75,0 -6,0 -12,6 -12,12 0,0 0,12 0,12 0,6 6,12 12,12 0,0 43.75,0 43.75,0 6,0 12,-6 12,-12 0,0 0,-12 0,-12 0,-6 -6,-12 -12,-12"
     id="path15"
     style="stroke:#aeaa21;stroke-opacity:1" />
  <text
     xml:space="preserve"
     text-anchor="middle"
     x="549.12"
     y="238.88002"
     font-family="sans"
     font-size="10px"
     id="text15">KMC_count</text>
  <path
     fill="none"
     stroke="#808080"
     stroke-width="2"
     d="m 595.48,181.66 c -6.63,7.49 -14.52,16.39 -21.89,24.71"
     id="path16" />
  <polygon
     fill="#808080"
     stroke="#808080"
     stroke-width="2"
     points="570,-408.97 575.24,-404.33 565.99,-399.17 "
     id="polygon16"
     transform="translate(1,613)" />
  <path
     fill="none"
     stroke="#56d892"
     stroke-width="2"
     d="m 400.12,289 c 0,0 -52,0 -52,0 -6,0 -12,6 -12,12 0,0 0,12 0,12 0,6 6,12 12,12 0,0 52,0 52,0 6,0 12,-6 12,-12 0,0 0,-12 0,-12 0,-6 -6,-12 -12,-12"
     id="path17"
     style="stroke:#36c0d3;stroke-opacity:1" />
  <text
     xml:space="preserve"
     text-anchor="middle"
     x="374.12"
     y="310.88"
     font-family="sans"
     font-size="10px"
     id="text17">miniprot_align</text>
  <path
     fill="none"
     stroke="#808080"
     stroke-width="2"
     d="m 564.74,177.11 c -27.75,8.97 -63.05,22.4 -91.62,39.89 -7.85,4.81 -44.31,38.14 -70.71,62.61"
     id="path18" />
  <polygon
     fill="#808080"
     stroke="#808080"
     stroke-width="2"
     points="399.38,-336.28 404.14,-331.15 394.43,-326.91 "
     id="polygon18"
     transform="translate(1,613)" />
  <path
     fill="none"
     stroke="#56d8b1"
     stroke-width="2"
     d="m 409.12,217 c 0,0 -70,0 -70,0 -6,0 -12,6 -12,12 0,0 0,12 0,12 0,6 6,12 12,12 0,0 70,0 70,0 6,0 12,-6 12,-12 0,0 0,-12 0,-12 0,-6 -6,-12 -12,-12"
     id="path19"
     style="stroke:#36c0d3;stroke-opacity:1" />
  <text
     xml:space="preserve"
     text-anchor="middle"
     x="374.12"
     y="238.88002"
     font-family="sans"
     font-size="10px"
     id="text19">minisplice_predict</text>
  <path
     fill="none"
     stroke="#808080"
     stroke-width="2"
     d="m 564.87,177.66 c -37.28,11.01 -89.98,26.58 -130.54,38.56"
     id="path20" />
  <polygon
     fill="#808080"
     stroke="#808080"
     stroke-width="2"
     points="432.39,-400.16 434.38,-393.44 423.79,-393.97 "
     id="polygon20"
     transform="translate(1,613)" />
  <path
     fill="none"
     stroke="#56d85b"
     stroke-width="2"
     d="m 651.25,361 c 0,0 -54.25,0 -54.25,0 -6,0 -12,6 -12,12 0,0 0,12 0,12 0,6 6,12 12,12 0,0 54.25,0 54.25,0 6,0 12,-6 12,-12 0,0 0,-12 0,-12 0,-6 -6,-12 -12,-12"
     id="path21"
     style="stroke:#561c82;stroke-opacity:1" />
  <text
     xml:space="preserve"
     text-anchor="middle"
     x="624.12"
     y="382.88"
     font-family="sans"
     font-size="10px"
     id="text21">minigraph_call</text>
  <path
     fill="none"
     stroke="#808080"
     stroke-width="2"
     d="m 612.21,181.88 c 2.22,36.5 7.29,119.99 10.05,165.38"
     id="path22" />
  <polygon
     fill="#808080"
     stroke="#808080"
     stroke-width="2"
     points="617.75,-265.77 624.74,-266.19 621.85,-256 "
     id="polygon22"
     transform="translate(1,613)" />
  <path
     fill="none"
     stroke="#56d8d8"
     stroke-width="2"
     d="m 696.75,217 c 0,0 -45.25,0 -45.25,0 -6,0 -12,6 -12,12 0,0 0,12 0,12 0,6 6,12 12,12 0,0 45.25,0 45.25,0 6,0 12,-6 12,-12 0,0 0,-12 0,-12 0,-6 -6,-12 -12,-12"
     id="path23"
     style="stroke:#561c82;stroke-opacity:1" />
  <text
     xml:space="preserve"
     text-anchor="middle"
     x="674.12"
     y="238.88002"
     font-family="sans"
     font-size="10px"
     id="text23">panSN_split</text>
  <path
     fill="none"
     stroke="#808080"
     stroke-width="2"
     d="m 627.02,181.66 c 6.81,7.57 14.93,16.59 22.49,24.99"
     id="path24" />
  <polygon
     fill="#808080"
     stroke="#808080"
     stroke-width="2"
     points="645.7,-404.24 650.9,-408.93 654.99,-399.15 "
     id="polygon24"
     transform="translate(1,613)" />
  <path
     fill="none"
     stroke="#d8d356"
     stroke-width="2"
     d="m 163.38,217 c 0,0 -68.5,0 -68.5,0 -6,0 -12,6 -12,12 0,0 0,12 0,12 0,6 6,12 12,12 0,0 68.5,0 68.5,0 6,0 12,-6 12,-12 0,0 0,-12 0,-12 0,-6 -6,-12 -12,-12"
     id="path25"
     style="stroke:#d84356;stroke-opacity:1" />
  <text
     xml:space="preserve"
     text-anchor="middle"
     x="129.12"
     y="238.88002"
     font-family="sans"
     font-size="10px"
     id="text25">cactus_minigraph</text>
  <path
     fill="none"
     stroke="#808080"
     stroke-width="2"
     d="m 564.64,168.72 c -90.4,9.35 -288.09,30.63 -375.93,47.59"
     id="path26" />
  <polygon
     fill="#808080"
     stroke="#808080"
     stroke-width="2"
     points="187.15,-400.15 188.55,-393.29 178.05,-394.72 "
     id="polygon26"
     transform="translate(1,613)" />
  <path
     fill="none"
     stroke="#88d856"
     stroke-width="2"
     d="m 771.12,1 c 0,0 -100,0 -100,0 -6,0 -12,6 -12,12 0,0 0,12 0,12 0,6 6,12 12,12 0,0 100,0 100,0 6,0 12,-6 12,-12 0,0 0,-12 0,-12 0,-6 -6,-12 -12,-12"
     id="path27"
     style="stroke:#2d2d2f;stroke-opacity:1" />
  <text
     xml:space="preserve"
     text-anchor="middle"
     x="721.12"
     y="22.879984"
     font-family="sans"
     font-size="10px"
     id="text27">cut_assemblies_at_gaps</text>
  <path
     fill="none"
     stroke="#808080"
     stroke-width="2"
     d="m 707.19,37.98 c -18.76,24.22 -52.33,67.57 -74.41,96.06"
     id="path28" />
  <polygon
     fill="#808080"
     stroke="#808080"
     stroke-width="2"
     points="629.15,-481.28 634.69,-476.99 625.8,-471.23 "
     id="polygon28"
     transform="translate(1,613)" />
  <path
     fill="none"
     stroke="#568ad8"
     stroke-width="2"
     d="m 937.5,73 c 0,0 -58.75,0 -58.75,0 -6,0 -12,6 -12,12 0,0 0,12 0,12 0,6 6,12 12,12 0,0 58.75,0 58.75,0 6,0 12,-6 12,-12 0,0 0,-12 0,-12 0,-6 -6,-12 -12,-12"
     id="path29"
     style="stroke:#2d2d2f;stroke-opacity:1" />
  <text
     xml:space="preserve"
     text-anchor="middle"
     x="908.12"
     y="94.880013"
     font-family="sans"
     font-size="10px"
     id="text29">ragtag_scaffold</text>
  <path
     fill="none"
     stroke="#808080"
     stroke-width="2"
     d="m 768.8,37.85 c 25.99,9.73 58.26,21.81 85.2,31.89"
     id="path30" />
  <polygon
     fill="#808080"
     stroke="#808080"
     stroke-width="2"
     points="851.53,-540.07 853.98,-546.63 862.12,-539.85 "
     id="polygon30"
     transform="translate(1,613)" />
  <path
     fill="none"
     stroke="#808080"
     stroke-width="2"
     d="m 865.89,101.95 c -51.22,12.08 -137.85,32.5 -195.68,46.12"
     id="path31" />
  <polygon
     fill="#808080"
     stroke="#808080"
     stroke-width="2"
     points="668.49,-468.35 670.1,-461.54 659.56,-462.65 "
     id="polygon31"
     transform="translate(1,613)" />
  <path
     fill="none"
     stroke="#a7d856"
     stroke-width="2"
     d="m 1130.62,217 c 0,0 -91,0 -91,0 -6,0 -12,6 -12,12 0,0 0,12 0,12 0,6 6,12 12,12 0,0 91,0 91,0 6,0 12,-6 12,-12 0,0 0,-12 0,-12 0,-6 -6,-12 -12,-12"
     id="path32"
     style="stroke:#119e53;stroke-opacity:1" />
  <text
     xml:space="preserve"
     text-anchor="middle"
     x="1085.12"
     y="238.88002"
     font-family="sans"
     font-size="10px"
     id="text32">calculate_variant_level</text>
  <path
     fill="none"
     stroke="#808080"
     stroke-width="2"
     d="m 950.31,94.84 c 35.99,4.74 86.43,17.24 115.81,50.16 14.14,15.84 18.67,39.57 19.79,58.55"
     id="path33" />
  <polygon
     fill="#808080"
     stroke="#808080"
     stroke-width="2"
     points="1081.4,-409.6 1088.4,-409.76 1085.13,-399.68 "
     id="polygon33"
     transform="translate(1,613)" />
  <path
     fill="none"
     stroke="#b6d856"
     stroke-width="2"
     d="m 1045,145 c 0,0 -121.75,0 -121.75,0 -6,0 -12,6 -12,12 0,0 0,12 0,12 0,6 6,12 12,12 0,0 121.75,0 121.75,0 6,0 12,-6 12,-12 0,0 0,-12 0,-12 0,-6 -6,-12 -12,-12"
     id="path34"
     style="stroke:#119e53;stroke-opacity:1" />
  <text
     xml:space="preserve"
     text-anchor="middle"
     x="984.12"
     y="166.88002"
     font-family="sans"
     font-size="10px"
     id="text34">calculate_reference_coverage</text>
  <path
     fill="none"
     stroke="#808080"
     stroke-width="2"
     d="m 927.3,109.66 c 8.49,7.82 18.65,17.18 28.02,25.81"
     id="path35" />
  <polygon
     fill="#808080"
     stroke="#808080"
     stroke-width="2"
     points="951.74,-475.15 956.48,-480.3 961.46,-470.95 "
     id="polygon35"
     transform="translate(1,613)" />
  <path
     fill="none"
     stroke="#808080"
     stroke-width="2"
     d="m 897.12,253.66 c 0,6.59 0,14.26 0,21.67"
     id="path36" />
  <polygon
     fill="#808080"
     stroke="#808080"
     stroke-width="2"
     points="892.63,-337.93 899.63,-337.93 896.13,-327.93 "
     id="polygon36"
     transform="translate(1,613)" />
  <path
     fill="none"
     stroke="#8fd856"
     stroke-width="2"
     d="m 881.5,145 c 0,0 -88.75,0 -88.75,0 -6,0 -12,6 -12,12 0,0 0,12 0,12 0,6 6,12 12,12 0,0 88.75,0 88.75,0 6,0 12,-6 12,-12 0,0 0,-12 0,-12 0,-6 -6,-12 -12,-12"
     id="path37"
     style="stroke:#119e53;stroke-opacity:1" />
  <text
     xml:space="preserve"
     text-anchor="middle"
     x="837.12"
     y="166.88002"
     font-family="sans"
     font-size="10px"
     id="text37">compleasm_download</text>
  <path
     fill="none"
     stroke="#808080"
     stroke-width="2"
     d="m 852.27,181.66 c 6.41,7.49 14.04,16.39 21.17,24.71"
     id="path38" />
  <polygon
     fill="#808080"
     stroke="#808080"
     stroke-width="2"
     points="869.65,-404.51 874.96,-409.07 878.81,-399.2 "
     id="polygon38"
     transform="translate(1,613)" />
  <path
     fill="none"
     stroke="#808080"
     stroke-width="2"
     d="m 1037.2,253.85 c -24.33,9.05 -54.12,20.14 -79.96,29.77"
     id="path39" />
  <polygon
     fill="#808080"
     stroke="#808080"
     stroke-width="2"
     points="955.28,-332.76 957.72,-326.2 947.13,-325.99 "
     id="polygon39"
     transform="translate(1,613)" />
  <path
     fill="none"
     stroke="#d88556"
     stroke-width="2"
     d="m 1084.5,289 c 0,0 -58.75,0 -58.75,0 -6,0 -12,6 -12,12 0,0 0,12 0,12 0,6 6,12 12,12 0,0 58.75,0 58.75,0 6,0 12,-6 12,-12 0,0 0,-12 0,-12 0,-6 -6,-12 -12,-12"
     id="path40"
     style="stroke:#119e53;stroke-opacity:1" />
  <text
     xml:space="preserve"
     text-anchor="middle"
     x="1055.12"
     y="310.88"
     font-family="sans"
     font-size="10px"
     id="text40">bcftools_merge</text>
  <path
     fill="none"
     stroke="#808080"
     stroke-width="2"
     d="m 1077.55,253.66 c -2.92,6.83 -6.35,14.84 -9.64,22.51"
     id="path41" />
  <polygon
     fill="#808080"
     stroke="#808080"
     stroke-width="2"
     points="1063.71,-338.25 1070.15,-335.5 1062.99,-327.68 "
     id="polygon41"
     transform="translate(1,613)" />
  <path
     fill="none"
     stroke="#808080"
     stroke-width="2"
     d="m 987.86,181.71 c 3.02,18.98 4.95,49.32 -7.74,71.29 -6.67,11.56 -16.99,20.99 -28.11,28.53"
     id="path42" />
  <polygon
     fill="#808080"
     stroke="#808080"
     stroke-width="2"
     points="949.46,-334.63 953.12,-328.66 942.77,-326.41 "
     id="polygon42"
     transform="translate(1,613)" />
  <path
     fill="none"
     stroke="#569ad8"
     stroke-width="2"
     d="m 988.88,505 c 0,0 -38.5,0 -38.5,0 -6,0 -12,6 -12,12 0,0 0,12 0,12 0,6 6,12 12,12 0,0 38.5,0 38.5,0 6,0 12,-6 12,-12 0,0 0,-12 0,-12 0,-6 -6,-12 -12,-12"
     id="path43"
     style="stroke:#119e53;stroke-opacity:1" />
  <text
     xml:space="preserve"
     text-anchor="middle"
     x="969.62"
     y="526.88"
     font-family="sans"
     font-size="10px"
     id="text43">plink_PCA</text>
  <path
     fill="none"
     stroke="#808080"
     stroke-width="2"
     d="m 1043.6,325.88 c -23.9,37.05 -41.0905,112.68901 -70.04047,157.56901"
     id="path45"
     sodipodi:nodetypes="cc" />
  <polygon
     fill="#808080"
     stroke="#808080"
     stroke-width="2"
     points="937.72,-118.03 929.36,-111.52 931.84,-121.82 "
     id="polygon45"
     transform="translate(38.21732,603.16901)" />
  <path
     fill="none"
     stroke="#5682d8"
     stroke-width="2"
     d="m 558.88,505 c 0,0 -35.5,0 -35.5,0 -6,0 -12,6 -12,12 0,0 0,12 0,12 0,6 6,12 12,12 0,0 35.5,0 35.5,0 6,0 12,-6 12,-12 0,0 0,-12 0,-12 0,-6 -6,-12 -12,-12"
     id="path46"
     style="stroke:#aeaa21;stroke-opacity:1" />
  <text
     xml:space="preserve"
     text-anchor="middle"
     x="541.12"
     y="526.88"
     font-family="sans"
     font-size="10px"
     id="text46">srf_gather</text>
  <path
     fill="none"
     stroke="#567bd8"
     stroke-width="2"
     d="m 549.12,433 c 0,0 -30,0 -30,0 -6,0 -12,6 -12,12 0,0 0,12 0,12 0,6 6,12 12,12 0,0 30,0 30,0 6,0 12,-6 12,-12 0,0 0,-12 0,-12 0,-6 -6,-12 -12,-12"
     id="path48"
     style="stroke:#aeaa21;stroke-opacity:1" />
  <text
     xml:space="preserve"
     text-anchor="middle"
     x="534.12"
     y="454.88"
     font-family="sans"
     font-size="10px"
     id="text48">srfutils</text>
  <path
     fill="none"
     stroke="#808080"
     stroke-width="2"
     d="m 535.89,469.66 c 0.66,6.59 1.43,14.26 2.17,21.67"
     id="path49" />
  <polygon
     fill="#808080"
     stroke="#808080"
     stroke-width="2"
     points="533.56,-121.52 540.52,-122.21 538.03,-111.91 "
     id="polygon49"
     transform="translate(1,613)" />
  <path
     fill="none"
     stroke="#808080"
     stroke-width="2"
     d="m 531.13,397.66 c 0.38,6.59 0.82,14.26 1.24,21.67"
     id="path50" />
  <polygon
     fill="#808080"
     stroke="#808080"
     stroke-width="2"
     points="527.86,-193.71 534.85,-194.11 531.93,-183.92 "
     id="polygon50"
     transform="translate(1,613)" />
  <path
     fill="none"
     stroke="#d85e56"
     stroke-width="2"
     d="m 561.12,289 c 0,0 -30,0 -30,0 -6,0 -12,6 -12,12 0,0 0,12 0,12 0,6 6,12 12,12 0,0 30,0 30,0 6,0 12,-6 12,-12 0,0 0,-12 0,-12 0,-6 -6,-12 -12,-12"
     id="path51"
     style="stroke:#aeaa21;stroke-opacity:1" />
  <text
     xml:space="preserve"
     text-anchor="middle"
     x="546.12"
     y="310.88"
     font-family="sans"
     font-size="10px"
     id="text51">SRF</text>
  <path
     fill="none"
     stroke="#808080"
     stroke-width="2"
     d="m 542.09,325.66 c -1.53,6.67 -3.31,14.45 -5.02,21.95"
     id="path52" />
  <polygon
     fill="#808080"
     stroke="#808080"
     stroke-width="2"
     points="532.71,-266.38 539.53,-264.82 533.89,-255.85 "
     id="polygon52"
     transform="translate(1,613)" />
  <path
     fill="none"
     stroke="#808080"
     stroke-width="2"
     d="m 548.37,253.66 c -0.28,6.59 -0.61,14.26 -0.93,21.67"
     id="path53" />
  <polygon
     fill="#808080"
     stroke="#808080"
     stroke-width="2"
     points="542.95,-338.07 549.95,-337.77 546.02,-327.93 "
     id="polygon53"
     transform="translate(1,613)" />
  <path
     fill="none"
     stroke="#56a2d8"
     stroke-width="2"
     d="m 404.62,433 c 0,0 -61,0 -61,0 -6,0 -12,6 -12,12 0,0 0,12 0,12 0,6 6,12 12,12 0,0 61,0 61,0 6,0 12,-6 12,-12 0,0 0,-12 0,-12 0,-6 -6,-12 -12,-12"
     id="path54"
     style="stroke:#36c0d3;stroke-opacity:1" />
  <text
     xml:space="preserve"
     text-anchor="middle"
     x="374.12"
     y="454.88"
     font-family="sans"
     font-size="10px"
     id="text54">pangene_matrix</text>
  <path
     fill="none"
     stroke="#56c9d8"
     stroke-width="2"
     d="m 389.12,361 c 0,0 -30,0 -30,0 -6,0 -12,6 -12,12 0,0 0,12 0,12 0,6 6,12 12,12 0,0 30,0 30,0 6,0 12,-6 12,-12 0,0 0,-12 0,-12 0,-6 -6,-12 -12,-12"
     id="path56"
     style="stroke:#36c0d3;stroke-opacity:1" />
  <text
     xml:space="preserve"
     text-anchor="middle"
     x="374.12"
     y="382.88"
     font-family="sans"
     font-size="10px"
     id="text56">pangene</text>
  <path
     fill="none"
     stroke="#808080"
     stroke-width="2"
     d="m 374.12,397.66 c 0,6.59 0,14.26 0,21.67"
     id="path57" />
  <polygon
     fill="#808080"
     stroke="#808080"
     stroke-width="2"
     points="369.63,-193.93 376.63,-193.93 373.13,-183.93 "
     id="polygon57"
     transform="translate(1,613)" />
  <path
     fill="none"
     stroke="#808080"
     stroke-width="2"
     d="m 374.12,325.66 c 0,6.59 0,14.26 0,21.67"
     id="path58" />
  <polygon
     fill="#808080"
     stroke="#808080"
     stroke-width="2"
     points="369.63,-265.93 376.63,-265.93 373.13,-255.93 "
     id="polygon58"
     transform="translate(1,613)" />
  <path
     fill="none"
     stroke="#808080"
     stroke-width="2"
     d="m 374.12,253.66 c 0,6.59 0,14.26 0,21.67"
     id="path59" />
  <polygon
     fill="#808080"
     stroke="#808080"
     stroke-width="2"
     points="369.63,-337.93 376.63,-337.93 373.13,-327.93 "
     id="polygon59"
     transform="translate(1,613)" />
  <path
     fill="none"
     stroke="#56d8a9"
     stroke-width="2"
     d="m 407.62,145 c 0,0 -67,0 -67,0 -6,0 -12,6 -12,12 0,0 0,12 0,12 0,6 6,12 12,12 0,0 67,0 67,0 6,0 12,-6 12,-12 0,0 0,-12 0,-12 0,-6 -6,-12 -12,-12"
     id="path60"
     style="stroke:#36c0d3;stroke-opacity:1" />
  <text
     xml:space="preserve"
     text-anchor="middle"
     x="374.12"
     y="166.88002"
     font-family="sans"
     font-size="10px"
     id="text60">minisplice_model</text>
  <path
     fill="none"
     stroke="#808080"
     stroke-width="2"
     d="m 374.12,181.66 c 0,6.59 0,14.26 0,21.67"
     id="path61" />
  <polygon
     fill="#808080"
     stroke="#808080"
     stroke-width="2"
     points="369.63,-409.93 376.63,-409.93 373.13,-399.93 "
     id="polygon61"
     transform="translate(1,613)" />
  <path
     fill="none"
     stroke="#9fd856"
     stroke-width="2"
     d="m 296.62,217 c 0,0 -91,0 -91,0 -6,0 -12,6 -12,12 0,0 0,12 0,12 0,6 6,12 12,12 0,0 91,0 91,0 6,0 12,-6 12,-12 0,0 0,-12 0,-12 0,-6 -6,-12 -12,-12"
     id="path62"
     style="stroke:#36c0d3;stroke-opacity:1" />
  <text
     xml:space="preserve"
     text-anchor="middle"
     x="251.12"
     y="238.88002"
     font-family="sans"
     font-size="10px"
     id="text62">cd_hit_collapse_genes</text>
  <path
     fill="none"
     stroke="#808080"
     stroke-width="2"
     d="m 259.95,253.72 c 15.12,30 47.32,92.51 78.17,143.28 4.95,8.14 10.62,16.77 15.97,24.64"
     id="path63" />
  <polygon
     fill="#808080"
     stroke="#808080"
     stroke-width="2"
     points="350.06,-189.59 355.82,-193.57 358.61,-183.35 "
     id="polygon63"
     transform="translate(1,613)" />
  <path
     fill="none"
     stroke="#808080"
     stroke-width="2"
     d="m 282.48,253.85 c 14.89,8.47 32.92,18.73 49.03,27.9"
     id="path64" />
  <polygon
     fill="#808080"
     stroke="#808080"
     stroke-width="2"
     points="328.77,-328.21 332.24,-334.3 339.2,-326.31 "
     id="polygon64"
     transform="translate(1,613)" />
  <path
     fill="none"
     stroke="#56b1d8"
     stroke-width="2"
     d="m 280.12,145 c 0,0 -58,0 -58,0 -6,0 -12,6 -12,12 0,0 0,12 0,12 0,6 6,12 12,12 0,0 58,0 58,0 6,0 12,-6 12,-12 0,0 0,-12 0,-12 0,-6 -6,-12 -12,-12"
     id="path65"
     style="stroke:#36c0d3;stroke-opacity:1" />
  <text
     xml:space="preserve"
     text-anchor="middle"
     x="251.12"
     y="166.88002"
     font-family="sans"
     font-size="10px"
     id="text65">pangene_getaa</text>
  <path
     fill="none"
     stroke="#808080"
     stroke-width="2"
     d="m 251.12,181.66 c 0,6.59 0,14.26 0,21.67"
     id="path66" />
  <polygon
     fill="#808080"
     stroke="#808080"
     stroke-width="2"
     points="246.63,-409.93 253.63,-409.93 250.13,-399.93 "
     id="polygon66"
     transform="translate(1,613)" />
  <path
     fill="none"
     stroke="#80d856"
     stroke-width="2"
     d="m 312.75,73 c 0,0 -123.25,0 -123.25,0 -6,0 -12,6 -12,12 0,0 0,12 0,12 0,6 6,12 12,12 0,0 123.25,0 123.25,0 6,0 12,-6 12,-12 0,0 0,-12 0,-12 0,-6 -6,-12 -12,-12"
     id="path67"
     style="stroke:#36c0d3;stroke-opacity:1" />
  <text
     xml:space="preserve"
     text-anchor="middle"
     x="251.12"
     y="94.880013"
     font-family="sans"
     font-size="10px"
     id="text67">download_annotated_peptides</text>
  <path
     fill="none"
     stroke="#808080"
     stroke-width="2"
     d="m 251.12,109.66 c 0,6.59 0,14.26 0,21.67"
     id="path68" />
  <polygon
     fill="#808080"
     stroke="#808080"
     stroke-width="2"
     points="246.63,-481.93 253.63,-481.93 250.13,-471.93 "
     id="polygon68"
     transform="translate(1,613)" />
  <path
     fill="none"
     stroke="#56d873"
     stroke-width="2"
     d="m 653.12,433 c 0,0 -58,0 -58,0 -6,0 -12,6 -12,12 0,0 0,12 0,12 0,6 6,12 12,12 0,0 58,0 58,0 6,0 12,-6 12,-12 0,0 0,-12 0,-12 0,-6 -6,-12 -12,-12"
     id="path69"
     style="stroke:#561c82;stroke-opacity:1" />
  <text
     xml:space="preserve"
     text-anchor="middle"
     x="624.12"
     y="454.88"
     font-family="sans"
     font-size="10px"
     id="text69">minigraph_path</text>
  <path
     fill="none"
     stroke="#808080"
     stroke-width="2"
     d="m 624.12,397.66 c 0,6.59 0,14.26 0,21.67"
     id="path71" />
  <polygon
     fill="#808080"
     stroke="#808080"
     stroke-width="2"
     points="619.63,-193.93 626.63,-193.93 623.13,-183.93 "
     id="polygon71"
     transform="translate(1,613)" />
  <path
     fill="none"
     stroke="#56d863"
     stroke-width="2"
     d="m 731,289 c 0,0 -79.75,0 -79.75,0 -6,0 -12,6 -12,12 0,0 0,12 0,12 0,6 6,12 12,12 0,0 79.75,0 79.75,0 6,0 12,-6 12,-12 0,0 0,-12 0,-12 0,-6 -6,-12 -12,-12"
     id="path72"
     style="stroke:#561c82;stroke-opacity:1" />
  <text
     xml:space="preserve"
     text-anchor="middle"
     x="691.12"
     y="310.88"
     font-family="sans"
     font-size="10px"
     id="text72">minigraph_construct</text>
  <path
     fill="none"
     stroke="#808080"
     stroke-width="2"
     d="m 690.04,325.97 c -1.74,18.66 -6.25,48.25 -17.92,71.03 -4.77,9.32 -11.61,18.26 -18.64,26.05"
     id="path73" />
  <polygon
     fill="#808080"
     stroke="#808080"
     stroke-width="2"
     points="650.14,-192.56 655.18,-187.71 645.72,-182.93 "
     id="polygon73"
     transform="translate(1,613)" />
  <path
     fill="none"
     stroke="#808080"
     stroke-width="2"
     d="m 674.22,325.66 c -7.33,7.65 -16.06,16.78 -24.18,25.26"
     id="path74" />
  <polygon
     fill="#808080"
     stroke="#808080"
     stroke-width="2"
     points="646.74,-264.73 651.8,-259.89 642.35,-255.09 "
     id="polygon74"
     transform="translate(1,613)" />
  <path
     fill="none"
     stroke="#808080"
     stroke-width="2"
     d="m 678.41,253.66 c 1.62,6.67 3.51,14.45 5.33,21.95"
     id="path75" />
  <polygon
     fill="#808080"
     stroke="#808080"
     stroke-width="2"
     points="679.3,-336.73 686.1,-338.39 685.06,-327.84 "
     id="polygon75"
     transform="translate(1,613)" />
  <path
     fill="none"
     stroke="#d8bc56"
     stroke-width="2"
     d="m 310.88,505 c 0,0 -41.5,0 -41.5,0 -6,0 -12,6 -12,12 0,0 0,12 0,12 0,6 6,12 12,12 0,0 41.5,0 41.5,0 6,0 12,-6 12,-12 0,0 0,-12 0,-12 0,-6 -6,-12 -12,-12"
     id="path76"
     style="stroke:#d84356;stroke-opacity:1" />
  <text
     xml:space="preserve"
     text-anchor="middle"
     x="290.12"
     y="526.88"
     font-family="sans"
     font-size="10px"
     id="text76">cactus_join</text>
  <path
     fill="none"
     stroke="#d6d856"
     stroke-width="2"
     d="m 152.38,361 c 0,0 -44.5,0 -44.5,0 -6,0 -12,6 -12,12 0,0 0,12 0,12 0,6 6,12 12,12 0,0 44.5,0 44.5,0 6,0 12,-6 12,-12 0,0 0,-12 0,-12 0,-6 -6,-12 -12,-12"
     id="path78"
     style="stroke:#d84356;stroke-opacity:1" />
  <text
     xml:space="preserve"
     text-anchor="middle"
     x="130.12"
     y="382.88"
     font-family="sans"
     font-size="10px"
     id="text78">cactus_split</text>
  <path
     fill="none"
     stroke="#808080"
     stroke-width="2"
     d="m 150.39,397.98 c 27.77,24.65 77.85,69.1 109.91,97.55"
     id="path79" />
  <polygon
     fill="#808080"
     stroke="#808080"
     stroke-width="2"
     points="256.96,-114.87 261.61,-120.1 266.76,-110.85 "
     id="polygon79"
     transform="translate(1,613)" />
  <path
     fill="none"
     stroke="#d8c356"
     stroke-width="2"
     d="m 97.25,145 c 0,0 -84.25,0 -84.25,0 -6,0 -12,6 -12,12 0,0 0,12 0,12 0,6 6,12 12,12 0,0 84.25,0 84.25,0 6,0 12,-6 12,-12 0,0 0,-12 0,-12 0,-6 -6,-12 -12,-12"
     id="path80"
     style="stroke:#d84356;stroke-opacity:1" />
  <text
     xml:space="preserve"
     text-anchor="middle"
     x="55.119999"
     y="166.88002"
     font-family="sans"
     font-size="10px"
     id="text80">cactus_make_seqfile</text>
  <path
     fill="none"
     stroke="#808080"
     stroke-width="2"
     d="M 46.39,181.87 C 32.44,213.2 9.29,279.07 36.12,325 c 10.34,17.7 29.01,29.95 47,38.17"
     id="path81" />
  <polygon
     fill="#808080"
     stroke="#808080"
     stroke-width="2"
     points="80.68,-246.63 83.37,-253.1 91.26,-246.03 "
     id="polygon81"
     transform="translate(1,613)" />
  <path
     fill="none"
     stroke="#808080"
     stroke-width="2"
     d="m 73.8,181.66 c 8.17,7.74 17.95,16.98 26.99,25.53"
     id="path82" />
  <polygon
     fill="#808080"
     stroke="#808080"
     stroke-width="2"
     points="97.33,-403.31 102.14,-408.4 107,-398.98 "
     id="polygon82"
     transform="translate(1,613)" />
  <path
     fill="none"
     stroke="#d8ac56"
     stroke-width="2"
     d="m 126.75,289 c 0,0 -69.25,0 -69.25,0 -6,0 -12,6 -12,12 0,0 0,12 0,12 0,6 6,12 12,12 0,0 69.25,0 69.25,0 6,0 12,-6 12,-12 0,0 0,-12 0,-12 0,-6 -6,-12 -12,-12"
     id="path83"
     style="stroke:#d84356;stroke-opacity:1" />
  <text
     xml:space="preserve"
     text-anchor="middle"
     x="92.119995"
     y="310.88"
     font-family="sans"
     font-size="10px"
     id="text83">cactus_graphmap</text>
  <path
     fill="none"
     stroke="#808080"
     stroke-width="2"
     d="m 58.3,181.88 c 3.37,18.08 9.11,46.75 15.82,71.12 2.06,7.47 4.59,15.43 7.08,22.85"
     id="path84" />
  <polygon
     fill="#808080"
     stroke="#808080"
     stroke-width="2"
     points="76.85,-336.15 83.46,-338.44 83.44,-327.85 "
     id="polygon84"
     transform="translate(1,613)" />
  <path
     fill="none"
     stroke="#808080"
     stroke-width="2"
     d="m 137.22,253.73 c 4.16,10.11 8.8,23.14 10.9,35.27 2.75,15.76 2.61,20.21 0,36 -1.26,7.64 -3.48,15.67 -5.94,23.09"
     id="path85" />
  <polygon
     fill="#808080"
     stroke="#808080"
     stroke-width="2"
     points="137.93,-266.22 144.51,-263.84 137.82,-255.62 "
     id="polygon85"
     transform="translate(1,613)" />
  <path
     fill="none"
     stroke="#808080"
     stroke-width="2"
     d="m 119.79,253.66 c -3.7,7 -8.05,15.22 -12.19,23.06"
     id="path86" />
  <polygon
     fill="#808080"
     stroke="#808080"
     stroke-width="2"
     points="103.58,-338.05 109.77,-334.78 102,-327.58 "
     id="polygon86"
     transform="translate(1,613)" />
  <path
     fill="none"
     stroke="#808080"
     stroke-width="2"
     d="m 101.71,325.66 c 3.8,7 8.27,15.22 12.52,23.06"
     id="path87" />
  <polygon
     fill="#808080"
     stroke="#808080"
     stroke-width="2"
     points="110.12,-262.68 116.27,-266.02 117.96,-255.56 "
     id="polygon87"
     transform="translate(1,613)" />
  <g
     id="svg87-3"
     transform="matrix(0.79959884,0,0,0.79959884,-777.75705,128.33127)"
     style="fill:#d84356;fill-opacity:1">
    <text
       xml:space="preserve"
       text-anchor="middle"
       x="1065.2473"
       y="442.37329"
       font-family="sans"
       font-size="47.4471px"
       id="text5-9-6"
       style="fill:#d84356;fill-opacity:1;stroke-width:4.74471">Cactus</text>
  </g>
  <g
     id="svg87-1"
     transform="matrix(0.79959884,0,0,0.79959884,-439.2639,155.70603)"
     style="fill:#36c0d3;fill-opacity:1">
    <text
       xml:space="preserve"
       text-anchor="middle"
       x="1065.2473"
       y="442.37329"
       font-family="sans"
       font-size="47.4471px"
       id="text5-9-38"
       style="fill:#36c0d3;fill-opacity:1;stroke-width:4.74471">Pangene</text>
  </g>
  <g
     id="svg87-1-3"
     transform="matrix(0.79959884,0,0,0.79959884,-174.28604,150.91486)"
     style="fill:#561c82;fill-opacity:1">
    <text
       xml:space="preserve"
       text-anchor="middle"
       x="1065.2473"
       y="442.37329"
       font-family="sans"
       font-size="47.4471px"
       id="text5-9-38-5"
       style="fill:#561c82;fill-opacity:1;stroke-width:4.74471">Minigraph</text>
  </g>
</svg>
